<svg width="958" height="939" viewBox="0 0 958 939" fill="none" xmlns="http://www.w3.org/2000/svg">
<path d="M723.058 145.361L718.463 147.079C708.987 150.622 700.114 159.303 692.011 172.005C683.963 184.622 677.028 200.651 671.196 217.977C659.535 252.615 652.535 291.665 649.679 317.015L649.129 321.889L639.381 320.791L639.93 315.916C642.841 290.083 649.957 250.316 661.898 214.846C667.866 197.117 675.103 180.269 683.741 166.729C692.323 153.275 702.648 142.52 715.027 137.89L719.621 136.172L723.058 145.361Z" fill="#5A4444"/>
<path d="M544.598 814.17C508.963 821.004 472.267 822.399 435.83 817.987C390.73 812.526 370.904 754.743 329.099 730.792C287.294 706.842 227.419 718.965 199.897 682.821C177.662 653.619 160.305 621.258 148.178 587.06L148.782 587.407C114.846 493.513 120.84 385.871 174.359 292.453C245.798 167.758 381.925 103.292 516.221 117.121C563.69 122.009 578.525 193.245 622.599 218.495C729.17 279.55 735.628 220.512 763.854 258.99C843.707 367.848 856.945 517.885 785.507 642.581C731.988 735.999 642.161 795.613 543.998 813.826L544.598 814.17Z" fill="#F5F5F5"/>
</svg>
