<svg width="133" height="73" viewBox="0 0 133 73" fill="none" xmlns="http://www.w3.org/2000/svg">
<path d="M46.9932 23.0669C47.4137 19.3363 49.0511 11.5771 52.2371 10.3857" stroke="#8DC619" stroke-width="7" stroke-linecap="square"/>
<path d="M39.6983 59.3435C37.1008 59.8416 34.4256 59.9433 31.7696 59.6217C28.4822 59.2236 27.0368 55.0118 23.9896 53.2661C20.9424 51.5207 16.5785 52.404 14.5724 49.7699C12.9516 47.6414 11.6863 45.2824 10.8023 42.7898L10.8463 42.815C8.37263 35.9712 8.80905 28.1253 12.7102 21.3162C17.9175 12.2276 27.84 7.52875 37.629 8.53657C41.089 8.89284 42.1709 14.0847 45.3833 15.9253C53.1514 20.3753 53.6222 16.0731 55.6796 18.8772C61.5002 26.8117 62.4659 37.748 57.2587 46.8368C53.3576 53.6458 46.8095 57.9906 39.6542 59.3182L39.6983 59.3435Z" fill="#8DC619"/>
<path d="M73.536 22.8005H78.9L83.004 48.0005H79.044L78.324 42.9965V43.0685H73.824L73.104 48.0005H69.432L73.536 22.8005ZM77.856 39.6485L76.092 27.1925H76.02L74.292 39.6485H77.856ZM84.9252 22.8005H90.7572C92.7252 22.8005 94.2012 23.3285 95.1852 24.3845C96.1692 25.4405 96.6612 26.9885 96.6612 29.0285V31.5125C96.6612 33.5525 96.1692 35.1005 95.1852 36.1565C94.2012 37.2125 92.7252 37.7405 90.7572 37.7405H88.8852V48.0005H84.9252V22.8005ZM90.7572 34.1405C91.4052 34.1405 91.8852 33.9605 92.1972 33.6005C92.5332 33.2405 92.7012 32.6285 92.7012 31.7645V28.7765C92.7012 27.9125 92.5332 27.3005 92.1972 26.9405C91.8852 26.5805 91.4052 26.4005 90.7572 26.4005H88.8852V34.1405H90.7572ZM98.8119 22.8005H104.644C106.612 22.8005 108.088 23.3285 109.072 24.3845C110.056 25.4405 110.548 26.9885 110.548 29.0285V31.5125C110.548 33.5525 110.056 35.1005 109.072 36.1565C108.088 37.2125 106.612 37.7405 104.644 37.7405H102.772V48.0005H98.8119V22.8005ZM104.644 34.1405C105.292 34.1405 105.772 33.9605 106.084 33.6005C106.42 33.2405 106.588 32.6285 106.588 31.7645V28.7765C106.588 27.9125 106.42 27.3005 106.084 26.9405C105.772 26.5805 105.292 26.4005 104.644 26.4005H102.772V34.1405H104.644ZM112.699 22.8005H118.531C120.499 22.8005 121.975 23.3285 122.959 24.3845C123.943 25.4405 124.435 26.9885 124.435 29.0285V31.5125C124.435 33.5525 123.943 35.1005 122.959 36.1565C121.975 37.2125 120.499 37.7405 118.531 37.7405H116.659V48.0005H112.699V22.8005ZM118.531 34.1405C119.179 34.1405 119.659 33.9605 119.971 33.6005C120.307 33.2405 120.475 32.6285 120.475 31.7645V28.7765C120.475 27.9125 120.307 27.3005 119.971 26.9405C119.659 26.5805 119.179 26.4005 118.531 26.4005H116.659V34.1405H118.531ZM125.482 48.1445C124.762 48.1445 124.15 48.0965 123.646 48.0005V44.4005C124.03 44.4965 124.462 44.5445 124.942 44.5445C125.734 44.5445 126.322 44.3525 126.706 43.9685C127.09 43.5605 127.282 42.9485 127.282 42.1325V22.8005H131.242V42.0245C131.242 44.0885 130.762 45.6245 129.802 46.6325C128.866 47.6405 127.426 48.1445 125.482 48.1445Z" fill="#8DC619"/>
</svg>
